<?xml version="1.0" standalone="no"?>
<!DOCTYPE svg PUBLIC "-//W3C//DTD SVG 20010904//EN"
 "http://www.w3.org/TR/2001/REC-SVG-20010904/DTD/svg10.dtd">
<svg version="1.0" xmlns="http://www.w3.org/2000/svg"
 width="700.000000pt" height="700.000000pt" viewBox="0 0 700.000000 700.000000"
 preserveAspectRatio="xMidYMid meet">
<metadata>
Created by potrace 1.11, written by Peter Selinger 2001-2013
</metadata>
<g transform="translate(0.000000,700.000000) scale(0.100000,-0.100000)"
fill="#000000" stroke="none">
<path d="M4645 6833 c-68 -23 -155 -110 -178 -177 -9 -27 -17 -73 -17 -101 0
-41 -5 -56 -22 -71 -87 -78 -189 -229 -232 -345 l-18 -46 -41 10 c-23 6 -125
11 -227 11 -170 0 -193 -2 -283 -27 -325 -90 -596 -304 -742 -590 l-39 -75
-44 81 c-98 183 -237 332 -422 449 -55 34 -229 113 -272 123 -13 2 -52 12 -88
20 -95 23 -335 28 -438 9 -181 -32 -377 -117 -517 -224 -58 -44 -207 -204
-249 -268 -53 -80 -118 -208 -134 -262 -57 -194 -64 -233 -67 -373 -8 -396
192 -775 523 -989 l62 -41 -86 -86 c-163 -162 -275 -330 -367 -554 -9 -20 -24
-40 -34 -43 -56 -19 -250 -114 -295 -145 -14 -11 -29 -19 -33 -19 -24 0 -292
-203 -343 -260 -49 -55 -53 -145 -8 -208 26 -37 163 -149 269 -220 97 -65 211
-128 331 -182 86 -39 101 -49 113 -80 87 -212 203 -387 358 -543 43 -44 104
-98 134 -120 31 -23 58 -45 61 -49 9 -11 223 -138 233 -138 9 0 3 -191 -9
-290 -17 -136 -73 -288 -150 -406 -62 -96 -78 -137 -78 -204 0 -37 15 -100 24
-100 6 0 10 -6 10 -14 0 -20 69 -90 110 -112 25 -13 56 -19 110 -19 85 0 130
17 181 69 35 35 109 140 109 155 0 5 4 11 9 13 30 11 137 290 165 428 19 96
33 206 37 287 l2 43 53 -5 c29 -2 138 -5 243 -7 l191 -2 -5 -55 c-10 -99 -14
-124 -35 -206 -24 -94 -72 -200 -130 -285 -53 -79 -69 -125 -66 -197 6 -134
107 -234 244 -239 109 -5 178 39 261 163 129 194 213 435 237 684 10 104 12
123 13 130 1 4 110 6 242 6 l242 0 -7 -81 c-14 -168 -62 -310 -154 -455 -64
-100 -76 -133 -75 -200 3 -139 104 -242 243 -248 120 -4 197 51 295 213 66
109 143 292 158 374 3 14 10 43 15 65 16 57 31 158 38 250 3 44 7 81 8 81 0 1
60 4 131 8 142 6 179 10 273 32 35 8 68 14 74 14 13 0 3 -148 -15 -240 -14
-66 -21 -93 -39 -145 -26 -72 -58 -134 -122 -237 -57 -92 -69 -162 -42 -246
32 -94 138 -172 236 -172 139 0 230 86 353 335 85 170 136 387 152 635 2 41 4
130 5 197 0 85 4 125 13 132 43 34 195 169 208 186 9 11 28 32 42 47 102 110
241 339 293 484 9 24 21 35 50 44 118 37 435 183 454 209 3 4 30 22 60 40 77
47 202 147 290 233 268 260 440 578 500 923 15 85 21 339 10 415 -18 126 -22
148 -41 220 -18 70 -30 106 -49 155 -4 11 -38 81 -74 155 -190 386 -556 714
-1001 896 l-80 33 1 43 c1 40 8 109 20 203 24 182 101 384 194 510 58 78 60
79 111 51 116 -65 262 -43 355 52 47 48 71 97 82 165 36 230 -215 411 -424
304 -96 -49 -151 -132 -161 -243 -6 -66 -8 -71 -54 -119 -91 -95 -169 -224
-226 -375 -26 -69 -68 -238 -78 -310 -3 -25 -8 -56 -10 -70 -3 -14 -7 -50 -10
-80 -3 -30 -8 -56 -10 -59 -2 -2 -46 6 -97 18 -51 11 -118 24 -148 27 -30 4
-57 8 -60 9 -8 5 -172 16 -274 19 -88 3 -90 4 -119 37 -153 174 -236 242 -394
324 -72 37 -72 37 -59 64 7 14 21 44 31 66 21 46 94 152 122 178 19 17 22 16
69 -10 43 -25 59 -28 139 -28 105 0 148 18 215 87 135 141 90 383 -87 469 -61
29 -161 35 -228 12z"/>
</g>
</svg>
